<mxfile host="app.diagrams.net" modified="2024-04-13T13:54:11.744Z" agent="Mozilla/5.0 (Windows NT 10.0; Win64; x64) AppleWebKit/537.36 (KHTML, like Gecko) Chrome/120.0.0.0 YaBrowser/24.1.0.0 Safari/537.36" etag="YFXYs8iR6qDiDNEv60dP" version="24.2.3" type="device">
  <diagram name="Страница — 1" id="wNfdy_ixT0x56tYHkFXr">
    <mxGraphModel dx="1050" dy="614" grid="1" gridSize="10" guides="1" tooltips="1" connect="1" arrows="1" fold="1" page="1" pageScale="1" pageWidth="827" pageHeight="1169" math="0" shadow="0">
      <root>
        <mxCell id="0" />
        <mxCell id="1" parent="0" />
        <mxCell id="HGNRgf0ITlQ2h7OGPHOG-4" style="edgeStyle=orthogonalEdgeStyle;rounded=0;orthogonalLoop=1;jettySize=auto;html=1;exitX=1;exitY=0.5;exitDx=0;exitDy=0;entryX=0;entryY=0.5;entryDx=0;entryDy=0;" edge="1" parent="1" source="HGNRgf0ITlQ2h7OGPHOG-2" target="HGNRgf0ITlQ2h7OGPHOG-3">
          <mxGeometry relative="1" as="geometry" />
        </mxCell>
        <mxCell id="HGNRgf0ITlQ2h7OGPHOG-2" value="client" style="rounded=0;whiteSpace=wrap;html=1;" vertex="1" parent="1">
          <mxGeometry x="80" y="260" width="120" height="60" as="geometry" />
        </mxCell>
        <mxCell id="HGNRgf0ITlQ2h7OGPHOG-6" style="edgeStyle=orthogonalEdgeStyle;rounded=0;orthogonalLoop=1;jettySize=auto;html=1;exitX=0.5;exitY=0;exitDx=0;exitDy=0;entryX=0.5;entryY=1;entryDx=0;entryDy=0;startArrow=classic;startFill=1;" edge="1" parent="1" source="HGNRgf0ITlQ2h7OGPHOG-3" target="HGNRgf0ITlQ2h7OGPHOG-5">
          <mxGeometry relative="1" as="geometry" />
        </mxCell>
        <mxCell id="HGNRgf0ITlQ2h7OGPHOG-7" value="gRPC" style="edgeLabel;html=1;align=center;verticalAlign=middle;resizable=0;points=[];" vertex="1" connectable="0" parent="HGNRgf0ITlQ2h7OGPHOG-6">
          <mxGeometry x="0.1733" y="-2" relative="1" as="geometry">
            <mxPoint x="-2" y="5" as="offset" />
          </mxGeometry>
        </mxCell>
        <mxCell id="HGNRgf0ITlQ2h7OGPHOG-10" style="edgeStyle=orthogonalEdgeStyle;rounded=0;orthogonalLoop=1;jettySize=auto;html=1;exitX=1;exitY=0.5;exitDx=0;exitDy=0;entryX=0;entryY=0.5;entryDx=0;entryDy=0;" edge="1" parent="1" source="HGNRgf0ITlQ2h7OGPHOG-3" target="HGNRgf0ITlQ2h7OGPHOG-9">
          <mxGeometry relative="1" as="geometry" />
        </mxCell>
        <mxCell id="HGNRgf0ITlQ2h7OGPHOG-3" value="Gateway" style="rounded=0;whiteSpace=wrap;html=1;" vertex="1" parent="1">
          <mxGeometry x="270" y="190" width="120" height="200" as="geometry" />
        </mxCell>
        <mxCell id="HGNRgf0ITlQ2h7OGPHOG-5" value="Auth" style="rounded=0;whiteSpace=wrap;html=1;" vertex="1" parent="1">
          <mxGeometry x="270" y="70" width="120" height="60" as="geometry" />
        </mxCell>
        <mxCell id="HGNRgf0ITlQ2h7OGPHOG-13" style="edgeStyle=orthogonalEdgeStyle;rounded=0;orthogonalLoop=1;jettySize=auto;html=1;entryX=0;entryY=0.5;entryDx=0;entryDy=0;" edge="1" parent="1" source="HGNRgf0ITlQ2h7OGPHOG-9" target="HGNRgf0ITlQ2h7OGPHOG-12">
          <mxGeometry relative="1" as="geometry" />
        </mxCell>
        <mxCell id="HGNRgf0ITlQ2h7OGPHOG-9" value="kafka" style="rounded=0;whiteSpace=wrap;html=1;" vertex="1" parent="1">
          <mxGeometry x="490" y="220" width="120" height="140" as="geometry" />
        </mxCell>
        <mxCell id="HGNRgf0ITlQ2h7OGPHOG-14" style="edgeStyle=orthogonalEdgeStyle;rounded=0;orthogonalLoop=1;jettySize=auto;html=1;exitX=1;exitY=0.5;exitDx=0;exitDy=0;entryX=1;entryY=0.25;entryDx=0;entryDy=0;" edge="1" parent="1" source="HGNRgf0ITlQ2h7OGPHOG-12" target="HGNRgf0ITlQ2h7OGPHOG-3">
          <mxGeometry relative="1" as="geometry">
            <Array as="points">
              <mxPoint x="830" y="200" />
              <mxPoint x="830" y="130" />
              <mxPoint x="430" y="130" />
              <mxPoint x="430" y="240" />
            </Array>
          </mxGeometry>
        </mxCell>
        <mxCell id="HGNRgf0ITlQ2h7OGPHOG-15" value="gRPC" style="edgeLabel;html=1;align=center;verticalAlign=middle;resizable=0;points=[];" vertex="1" connectable="0" parent="HGNRgf0ITlQ2h7OGPHOG-14">
          <mxGeometry x="0.0825" y="-2" relative="1" as="geometry">
            <mxPoint as="offset" />
          </mxGeometry>
        </mxCell>
        <mxCell id="HGNRgf0ITlQ2h7OGPHOG-12" value="ProfileService" style="rounded=0;whiteSpace=wrap;html=1;" vertex="1" parent="1">
          <mxGeometry x="690" y="170" width="120" height="60" as="geometry" />
        </mxCell>
      </root>
    </mxGraphModel>
  </diagram>
</mxfile>
